<?xml version="1.0" encoding="UTF-8" standalone="no"?>
<!-- Created with Inkscape (http://www.inkscape.org/) -->

<svg
   xmlns:dc="http://purl.org/dc/elements/1.1/"
   xmlns:cc="http://creativecommons.org/ns#"
   xmlns:rdf="http://www.w3.org/1999/02/22-rdf-syntax-ns#"
   xmlns:svg="http://www.w3.org/2000/svg"
   xmlns="http://www.w3.org/2000/svg"
   xmlns:sodipodi="http://sodipodi.sourceforge.net/DTD/sodipodi-0.dtd"
   xmlns:inkscape="http://www.inkscape.org/namespaces/inkscape"
   width="2048"
   height="512"
   id="svg2"
   version="1.1"
   inkscape:version="0.48.4 r9939"
   sodipodi:docname="Logo_wordmark.svg">
  <defs
     id="defs4" />
  <sodipodi:namedview
     id="base"
     pagecolor="#000000"
     bordercolor="#52ff30"
     borderopacity="0.54901961"
     inkscape:pageopacity="0"
     inkscape:pageshadow="2"
     inkscape:zoom="0.5"
     inkscape:cx="1105.6865"
     inkscape:cy="443.76613"
     inkscape:document-units="px"
     inkscape:current-layer="layer2"
     showgrid="false"
     borderlayer="true"
     inkscape:window-width="2456"
     inkscape:window-height="1418"
     inkscape:window-x="1592"
     inkscape:window-y="-8"
     inkscape:window-maximized="1" />
  <metadata
     id="metadata7">
    <rdf:RDF>
      <cc:Work
         rdf:about="">
        <dc:format>image/svg+xml</dc:format>
        <dc:type
           rdf:resource="http://purl.org/dc/dcmitype/StillImage" />
        <dc:title></dc:title>
      </cc:Work>
    </rdf:RDF>
  </metadata>
  <g
     inkscape:label="bg"
     inkscape:groupmode="layer"
     id="layer1"
     transform="translate(0,-540.36218)">
    <rect
       style="color:#000000;fill:#38434b;fill-opacity:1;fill-rule:nonzero;stroke:none;stroke-width:10;marker:none;visibility:visible;display:inline;overflow:visible;enable-background:accumulate"
       id="rect3782"
       width="2058.6909"
       height="529.1637"
       x="-5.2121768"
       y="530.61548" />
  </g>
  <g
     inkscape:groupmode="layer"
     id="layer5"
     inkscape:label="fulltext"
     transform="translate(0,-512)">
    <text
       xml:space="preserve"
       style="font-size:178.13975525px;font-style:normal;font-variant:normal;font-weight:bold;font-stretch:normal;line-height:125%;letter-spacing:0px;word-spacing:0px;fill:#ffffff;fill-opacity:1;stroke:none;display:inline;font-family:Ubuntu;-inkscape-font-specification:Ubuntu Bold"
       x="106.16795"
       y="891.05566"
       id="text3890"
       sodipodi:linespacing="125%"><tspan
         sodipodi:role="line"
         id="tspan3892"
         x="106.16795"
         y="891.05566"
         dx="0 -4.3531685 0 0 -1.3165213 -1.5279335 0 15.979984 0 -2.1621697 0 0 -1.4510564 -3.4699979 -6.9189477">blenderday 2014</tspan></text>
  </g>
  <g
     inkscape:groupmode="layer"
     id="layer2"
     inkscape:label="graphics"
     transform="translate(0,-512)">
    <path
       style="color:#000000;fill:#ffffff;fill-opacity:1;fill-rule:nonzero;stroke:none;stroke-width:10;marker:none;visibility:visible;display:inline;overflow:visible;enable-background:accumulate"
       d="m 1778.523,594.26229 c -39.5089,0 -75.8888,13.32463 -104.956,35.68664 l -101.5573,0 c -9.4833,0 -18.5013,3.73318 -25.2071,10.43895 -6.7058,6.70577 -10.4391,15.72386 -10.4391,25.20723 0,9.48338 3.7333,18.50147 10.4391,25.20724 6.7058,6.70578 15.7238,10.43895 25.2071,10.43895 l 47.0563,0 c -8.2686,20.15556 -12.8667,42.21002 -12.8667,65.34459 0,95.16898 77.1547,172.3236 172.3237,172.3236 95.169,0 172.3236,-77.15462 172.3236,-172.3236 0,-95.16897 -77.1546,-172.3236 -172.3236,-172.3236 z m -521.8666,35.68664 c -9.4834,0 -18.5015,3.73318 -25.2073,10.43895 -6.7057,6.70577 -10.4388,15.72386 -10.4388,25.20723 0,9.48338 3.7331,18.50147 10.4388,25.20724 6.7058,6.70578 15.7239,10.43895 25.2073,10.43895 l 125.4697,0 c 9.4834,0 18.5015,-3.73317 25.2072,-10.43895 6.7058,-6.70577 10.439,-15.72386 10.439,-25.20724 0,-9.48337 -3.7332,-18.50146 -10.439,-25.20723 -6.7057,-6.70577 -15.7238,-10.43895 -25.2072,-10.43895 l -125.4697,0 z m 220.3104,0 c -9.4834,0 -18.5015,3.73318 -25.2073,10.43895 -6.7058,6.70577 -10.4389,15.72386 -10.4389,25.20723 0,9.48338 3.7331,18.50147 10.4389,25.20724 6.7058,6.70578 15.7239,10.43895 25.2073,10.43895 l 0.2023,0 c 9.4834,0 18.5014,-3.73317 25.2072,-10.43895 6.7058,-6.70577 10.439,-15.72386 10.439,-25.20724 0,-9.48337 -3.7332,-18.50146 -10.439,-25.20723 -6.7058,-6.70577 -15.7238,-10.43895 -25.2072,-10.43895 l -0.2023,0 z m -220.3104,11.85509 125.4697,0 a 23.770865,23.770865 0 0 1 1.2138,0.0809 23.770865,23.770865 0 0 1 1.7399,0.12139 23.770865,23.770865 0 0 1 1.2542,0.20229 23.770865,23.770865 0 0 1 0.8497,0.16186 23.770865,23.770865 0 0 1 1.2543,0.32368 23.770865,23.770865 0 0 1 1.4161,0.4046 23.770865,23.770865 0 0 1 0.2428,0.0809 23.770865,23.770865 0 0 1 0.2428,0.0809 23.770865,23.770865 0 0 1 1.9421,0.84968 23.770865,23.770865 0 0 1 1.6994,0.89014 23.770865,23.770865 0 0 1 1.1733,0.72831 23.770865,23.770865 0 0 1 0.6474,0.44507 23.770865,23.770865 0 0 1 1.1734,0.84968 23.770865,23.770865 0 0 1 0.8902,0.76876 23.770865,23.770865 0 0 1 0.3236,0.28322 23.770865,23.770865 0 0 1 0.9711,0.93061 23.770865,23.770865 0 0 1 0.3236,0.36415 23.770865,23.770865 0 0 1 0.7689,0.89014 23.770865,23.770865 0 0 1 0.8091,0.97106 23.770865,23.770865 0 0 1 0.2833,0.36415 23.770865,23.770865 0 0 1 0.4046,0.60693 23.770865,23.770865 0 0 1 0.6069,0.97105 23.770865,23.770865 0 0 1 0.4855,0.76876 23.770865,23.770865 0 0 1 0.8094,1.61845 23.770865,23.770865 0 0 1 0.1617,0.32369 23.770865,23.770865 0 0 1 0.6877,1.73982 23.770865,23.770865 0 0 1 0.2429,0.7283 23.770865,23.770865 0 0 1 0.4046,1.41614 23.770865,23.770865 0 0 1 0.2428,1.13291 23.770865,23.770865 0 0 1 0.2023,0.97106 23.770865,23.770865 0 0 1 0.1619,1.49706 23.770865,23.770865 0 0 1 0.081,1.09245 23.770865,23.770865 0 0 1 0.04,1.1329 23.770865,23.770865 0 0 1 -0.04,1.13292 23.770865,23.770865 0 0 1 -0.081,1.05199 23.770865,23.770865 0 0 1 -0.1619,1.45659 23.770865,23.770865 0 0 1 -0.2023,1.17338 23.770865,23.770865 0 0 1 -0.1214,0.56645 23.770865,23.770865 0 0 1 -0.1214,0.36414 23.770865,23.770865 0 0 1 -0.4451,1.57799 23.770865,23.770865 0 0 1 -0.081,0.32369 23.770865,23.770865 0 0 1 -0.04,0.16184 23.770865,23.770865 0 0 1 -0.8496,2.02305 23.770865,23.770865 0 0 1 0,0.0809 23.770865,23.770865 0 0 1 -0.8902,1.69937 23.770865,23.770865 0 0 1 -0.2024,0.36414 23.770865,23.770865 0 0 1 -0.2832,0.40461 23.770865,23.770865 0 0 1 -1.0115,1.57799 23.770865,23.770865 0 0 1 -0.2832,0.36415 23.770865,23.770865 0 0 1 -0.8092,0.97105 23.770865,23.770865 0 0 1 -0.8497,1.01153 23.770865,23.770865 0 0 1 -0.4855,0.48554 23.770865,23.770865 0 0 1 -1.3757,1.25428 23.770865,23.770865 0 0 1 -1.1734,0.97107 23.770865,23.770865 0 0 1 -0.2427,0.16185 23.770865,23.770865 0 0 1 -1.4162,0.9306 23.770865,23.770865 0 0 1 -0.3237,0.24276 23.770865,23.770865 0 0 1 -0.4045,0.20232 23.770865,23.770865 0 0 1 -1.0116,0.56645 23.770865,23.770865 0 0 1 -1.0925,0.526 23.770865,23.770865 0 0 1 -1.4566,0.60691 23.770865,23.770865 0 0 1 -0.5664,0.2023 23.770865,23.770865 0 0 1 -1.6994,0.526 23.770865,23.770865 0 0 1 -0.3236,0.0809 23.770865,23.770865 0 0 1 -0.1618,0.0405 23.770865,23.770865 0 0 1 -1.9422,0.36415 23.770865,23.770865 0 0 1 -0.2428,0.0405 23.770865,23.770865 0 0 1 -0.2427,0 23.770865,23.770865 0 0 1 -1.9017,0.16186 23.770865,23.770865 0 0 1 -0.2428,0.0405 23.770865,23.770865 0 0 1 -0.9711,0.0404 l -125.4696,0 a 23.770865,23.770865 0 0 1 -2.3873,-0.12138 23.770865,23.770865 0 0 1 -2.3063,-0.36415 23.770865,23.770865 0 0 1 -0.081,0 23.770865,23.770865 0 0 1 -1.5375,-0.40461 23.770865,23.770865 0 0 1 -1.4161,-0.40461 23.770865,23.770865 0 0 1 -0.5665,-0.2023 23.770865,23.770865 0 0 1 -1.4565,-0.60691 23.770865,23.770865 0 0 1 -1.0926,-0.526 23.770865,23.770865 0 0 1 -0.8901,-0.48553 23.770865,23.770865 0 0 1 -1.6994,-1.05199 23.770865,23.770865 0 0 1 -1.8611,-1.41614 23.770865,23.770865 0 0 1 -1.4972,-1.37567 23.770865,23.770865 0 0 1 -0.4854,-0.48554 23.770865,23.770865 0 0 1 -0.9711,-1.13291 23.770865,23.770865 0 0 1 -0.526,-0.60691 23.770865,23.770865 0 0 1 -1.1734,-1.69936 23.770865,23.770865 0 0 1 -0.081,-0.0809 23.770865,23.770865 0 0 1 -0.8093,-1.41613 23.770865,23.770865 0 0 1 -0.6878,-1.37568 23.770865,23.770865 0 0 1 -0.1618,-0.36415 23.770865,23.770865 0 0 1 -0.6474,-1.53752 23.770865,23.770865 0 0 1 -0.3641,-1.09245 23.770865,23.770865 0 0 1 -0.3238,-1.17337 23.770865,23.770865 0 0 1 -0.2832,-1.25429 23.770865,23.770865 0 0 1 -0.1619,-0.80922 23.770865,23.770865 0 0 1 -0.2022,-1.61845 23.770865,23.770865 0 0 1 -0.04,-0.97106 23.770865,23.770865 0 0 1 -0.04,-1.21382 23.770865,23.770865 0 0 1 0.04,-1.13292 23.770865,23.770865 0 0 1 0.081,-1.05199 23.770865,23.770865 0 0 1 0.1617,-1.49706 23.770865,23.770865 0 0 1 0.162,-0.89014 23.770865,23.770865 0 0 1 0.3236,-1.33521 23.770865,23.770865 0 0 1 0.2832,-1.052 23.770865,23.770865 0 0 1 0.3238,-1.01151 23.770865,23.770865 0 0 1 0.6878,-1.69937 23.770865,23.770865 0 0 1 0.1617,-0.32369 23.770865,23.770865 0 0 1 0.8094,-1.61845 23.770865,23.770865 0 0 1 0.4855,-0.76875 23.770865,23.770865 0 0 1 0.526,-0.84967 23.770865,23.770865 0 0 1 0.971,-1.37569 23.770865,23.770865 0 0 1 0.2428,-0.24277 23.770865,23.770865 0 0 1 1.4566,-1.6589 23.770865,23.770865 0 0 1 1.7398,-1.61844 23.770865,23.770865 0 0 1 1.6589,-1.29476 23.770865,23.770865 0 0 1 0.607,-0.4046 23.770865,23.770865 0 0 1 1.2947,-0.80923 23.770865,23.770865 0 0 1 0.7282,-0.4046 23.770865,23.770865 0 0 1 1.6995,-0.80922 23.770865,23.770865 0 0 1 0.081,0 23.770865,23.770865 0 0 1 2.1848,-0.80923 23.770865,23.770865 0 0 1 2.0636,-0.52598 23.770865,23.770865 0 0 1 0.7688,-0.16186 23.770865,23.770865 0 0 1 1.2542,-0.2023 23.770865,23.770865 0 0 1 1.6994,-0.12138 23.770865,23.770865 0 0 1 1.2543,-0.0809 z m 220.3104,0 0.2023,0 a 23.770865,23.770865 0 0 1 1.2543,0.0809 23.770865,23.770865 0 0 1 1.6993,0.12139 23.770865,23.770865 0 0 1 1.2543,0.20229 23.770865,23.770865 0 0 1 0.8497,0.16186 23.770865,23.770865 0 0 1 1.2543,0.32368 23.770865,23.770865 0 0 1 1.4161,0.4046 23.770865,23.770865 0 0 1 0.2428,0.0809 23.770865,23.770865 0 0 1 0.2427,0.0809 23.770865,23.770865 0 0 1 1.9421,0.84968 23.770865,23.770865 0 0 1 1.6995,0.89014 23.770865,23.770865 0 0 1 1.1733,0.72831 23.770865,23.770865 0 0 1 0.6474,0.44507 23.770865,23.770865 0 0 1 1.1734,0.84968 23.770865,23.770865 0 0 1 0.8901,0.76876 23.770865,23.770865 0 0 1 0.3237,0.28322 23.770865,23.770865 0 0 1 0.971,0.93061 23.770865,23.770865 0 0 1 0.3238,0.36415 23.770865,23.770865 0 0 1 0.7688,0.89014 23.770865,23.770865 0 0 1 0.8092,0.97106 23.770865,23.770865 0 0 1 0.2832,0.36415 23.770865,23.770865 0 0 1 0.4046,0.60693 23.770865,23.770865 0 0 1 0.6069,0.97105 23.770865,23.770865 0 0 1 0.4856,0.76876 23.770865,23.770865 0 0 1 0.8092,1.61845 23.770865,23.770865 0 0 1 0.1618,0.32369 23.770865,23.770865 0 0 1 0.6878,1.73982 23.770865,23.770865 0 0 1 0.2428,0.7283 23.770865,23.770865 0 0 1 0.4046,1.41614 23.770865,23.770865 0 0 1 0.2428,1.13291 23.770865,23.770865 0 0 1 0.2023,0.97106 23.770865,23.770865 0 0 1 0.1618,1.49706 23.770865,23.770865 0 0 1 0.081,1.09245 23.770865,23.770865 0 0 1 0.04,1.1329 23.770865,23.770865 0 0 1 -0.04,1.13292 23.770865,23.770865 0 0 1 -0.081,1.05199 23.770865,23.770865 0 0 1 -0.1618,1.45659 23.770865,23.770865 0 0 1 -0.2023,1.17338 23.770865,23.770865 0 0 1 -0.1214,0.56645 23.770865,23.770865 0 0 1 -0.1214,0.36414 23.770865,23.770865 0 0 1 -0.445,1.57799 23.770865,23.770865 0 0 1 -0.081,0.32369 23.770865,23.770865 0 0 1 -0.04,0.16184 23.770865,23.770865 0 0 1 -0.8497,2.02305 23.770865,23.770865 0 0 1 0,0.0809 23.770865,23.770865 0 0 1 -0.8902,1.69937 23.770865,23.770865 0 0 1 -0.2023,0.36414 23.770865,23.770865 0 0 1 -0.2832,0.40461 23.770865,23.770865 0 0 1 -1.0115,1.57799 23.770865,23.770865 0 0 1 -0.2832,0.36415 23.770865,23.770865 0 0 1 -0.8093,0.97105 23.770865,23.770865 0 0 1 -0.8496,1.01153 23.770865,23.770865 0 0 1 -0.2428,0.24277 23.770865,23.770865 0 0 1 -0.2427,0.24277 23.770865,23.770865 0 0 1 -1.3758,1.25428 23.770865,23.770865 0 0 1 -1.1734,0.97107 23.770865,23.770865 0 0 1 -0.2428,0.16185 23.770865,23.770865 0 0 1 -1.4161,0.9306 23.770865,23.770865 0 0 1 -0.3236,0.24276 23.770865,23.770865 0 0 1 -0.4047,0.20232 23.770865,23.770865 0 0 1 -1.0114,0.56645 23.770865,23.770865 0 0 1 -1.0925,0.526 23.770865,23.770865 0 0 1 -1.4567,0.60691 23.770865,23.770865 0 0 1 -0.5664,0.2023 23.770865,23.770865 0 0 1 -1.6993,0.526 23.770865,23.770865 0 0 1 -0.3238,0.0809 23.770865,23.770865 0 0 1 -0.1618,0.0405 23.770865,23.770865 0 0 1 -1.9421,0.36415 23.770865,23.770865 0 0 1 -0.2428,0.0405 23.770865,23.770865 0 0 1 -0.2428,0 23.770865,23.770865 0 0 1 -1.8612,0.16186 23.770865,23.770865 0 0 1 -0.2832,0.0405 23.770865,23.770865 0 0 1 -0.971,0.0404 l -0.2023,0 a 23.770865,23.770865 0 0 1 -2.3872,-0.12138 23.770865,23.770865 0 0 1 -2.3064,-0.36415 23.770865,23.770865 0 0 1 -0.081,0 23.770865,23.770865 0 0 1 -1.5374,-0.40461 23.770865,23.770865 0 0 1 -1.4161,-0.40461 23.770865,23.770865 0 0 1 -0.5666,-0.2023 23.770865,23.770865 0 0 1 -1.4565,-0.60691 23.770865,23.770865 0 0 1 -1.0925,-0.526 23.770865,23.770865 0 0 1 -0.8902,-0.48553 23.770865,23.770865 0 0 1 -1.6993,-1.05199 23.770865,23.770865 0 0 1 -1.8613,-1.41614 23.770865,23.770865 0 0 1 -1.4969,-1.37567 23.770865,23.770865 0 0 1 -0.2428,-0.24277 23.770865,23.770865 0 0 1 -0.2428,-0.24277 23.770865,23.770865 0 0 1 -0.9711,-1.13291 23.770865,23.770865 0 0 1 -0.526,-0.60691 23.770865,23.770865 0 0 1 -1.1733,-1.69936 23.770865,23.770865 0 0 1 -0.081,-0.0809 23.770865,23.770865 0 0 1 -0.8091,-1.41613 23.770865,23.770865 0 0 1 -0.6879,-1.37568 23.770865,23.770865 0 0 1 -0.1619,-0.36415 23.770865,23.770865 0 0 1 -0.6472,-1.53752 23.770865,23.770865 0 0 1 -0.3643,-1.09245 23.770865,23.770865 0 0 1 -0.3235,-1.17337 23.770865,23.770865 0 0 1 -0.2833,-1.25429 23.770865,23.770865 0 0 1 -0.1619,-0.80922 23.770865,23.770865 0 0 1 -0.2023,-1.61845 23.770865,23.770865 0 0 1 -0.04,-0.97106 23.770865,23.770865 0 0 1 -0.04,-1.21382 23.770865,23.770865 0 0 1 0.04,-1.13292 23.770865,23.770865 0 0 1 0.081,-1.05199 23.770865,23.770865 0 0 1 0.1619,-1.49706 23.770865,23.770865 0 0 1 0.1619,-0.89014 23.770865,23.770865 0 0 1 0.3237,-1.33521 23.770865,23.770865 0 0 1 0.2831,-1.052 23.770865,23.770865 0 0 1 0.3237,-1.01151 23.770865,23.770865 0 0 1 0.6879,-1.69937 23.770865,23.770865 0 0 1 0.1618,-0.32369 23.770865,23.770865 0 0 1 0.8093,-1.61845 23.770865,23.770865 0 0 1 0.2023,-0.36414 23.770865,23.770865 0 0 1 0.8092,-1.25428 23.770865,23.770865 0 0 1 0.971,-1.37569 23.770865,23.770865 0 0 1 0.2429,-0.24277 23.770865,23.770865 0 0 1 1.4566,-1.6589 23.770865,23.770865 0 0 1 1.7397,-1.61844 23.770865,23.770865 0 0 1 1.659,-1.29476 23.770865,23.770865 0 0 1 0.6068,-0.4046 23.770865,23.770865 0 0 1 1.2948,-0.80923 23.770865,23.770865 0 0 1 0.7283,-0.4046 23.770865,23.770865 0 0 1 1.6994,-0.80922 23.770865,23.770865 0 0 1 0.081,0 23.770865,23.770865 0 0 1 2.1849,-0.80923 23.770865,23.770865 0 0 1 2.0635,-0.52598 23.770865,23.770865 0 0 1 0.7688,-0.16186 23.770865,23.770865 0 0 1 1.2543,-0.2023 23.770865,23.770865 0 0 1 1.7399,-0.12138 23.770865,23.770865 0 0 1 1.2137,-0.0809 z m 95.0429,0 87.6792,0 118.8341,0 0.5664,0 c 0.081,3.6e-4 0.1622,-4.5e-4 0.2427,0 68.5454,0.43403 123.9727,56.13434 123.9727,124.78187 0,68.91669 -55.8651,124.78187 -124.7818,124.78187 -68.9167,0 -124.7818,-55.86518 -124.7818,-124.78187 0,-29.16737 10.0176,-55.994 26.7851,-77.24014 l -56.0791,0 -52.4375,0 a 23.770865,23.770865 0 0 1 -2.3872,-0.12138 23.770865,23.770865 0 0 1 -2.3062,-0.36416 23.770865,23.770865 0 0 1 -0.081,0 23.770865,23.770865 0 0 1 -1.5375,-0.4046 23.770865,23.770865 0 0 1 -1.4162,-0.40461 23.770865,23.770865 0 0 1 -0.5664,-0.20231 23.770865,23.770865 0 0 1 -1.4567,-0.6069 23.770865,23.770865 0 0 1 -1.0924,-0.52601 23.770865,23.770865 0 0 1 -0.8901,-0.48552 23.770865,23.770865 0 0 1 -1.6993,-1.05199 23.770865,23.770865 0 0 1 -1.8613,-1.41615 23.770865,23.770865 0 0 1 -1.4971,-1.37566 23.770865,23.770865 0 0 1 -0.2427,-0.24277 23.770865,23.770865 0 0 1 -0.2428,-0.24277 23.770865,23.770865 0 0 1 -0.971,-1.13291 23.770865,23.770865 0 0 1 -0.526,-0.60691 23.770865,23.770865 0 0 1 -1.1734,-1.69937 23.770865,23.770865 0 0 1 -0.081,-0.0809 23.770865,23.770865 0 0 1 -0.8093,-1.41613 23.770865,23.770865 0 0 1 -0.6879,-1.37568 23.770865,23.770865 0 0 1 -0.1617,-0.36416 23.770865,23.770865 0 0 1 -0.6474,-1.53751 23.770865,23.770865 0 0 1 -0.3642,-1.09246 23.770865,23.770865 0 0 1 -0.3236,-1.17336 23.770865,23.770865 0 0 1 -0.2832,-1.25429 23.770865,23.770865 0 0 1 -0.1619,-0.80922 23.770865,23.770865 0 0 1 -0.2024,-1.61845 23.770865,23.770865 0 0 1 -0.04,-0.97107 23.770865,23.770865 0 0 1 -0.04,-1.21382 23.770865,23.770865 0 0 1 0.04,-1.13292 23.770865,23.770865 0 0 1 0.081,-1.05198 23.770865,23.770865 0 0 1 0.1619,-1.49706 23.770865,23.770865 0 0 1 0.1618,-0.89014 23.770865,23.770865 0 0 1 0.3237,-1.33521 23.770865,23.770865 0 0 1 0.2832,-1.052 23.770865,23.770865 0 0 1 0.3237,-1.01151 23.770865,23.770865 0 0 1 0.6878,-1.69937 23.770865,23.770865 0 0 1 0.1619,-0.32369 23.770865,23.770865 0 0 1 0.8092,-1.61845 23.770865,23.770865 0 0 1 0.2023,-0.36415 23.770865,23.770865 0 0 1 0.8092,-1.25429 23.770865,23.770865 0 0 1 0.9711,-1.37567 23.770865,23.770865 0 0 1 0.2428,-0.24277 23.770865,23.770865 0 0 1 1.4566,-1.6589 23.770865,23.770865 0 0 1 1.7397,-1.61844 23.770865,23.770865 0 0 1 1.659,-1.29476 23.770865,23.770865 0 0 1 0.6068,-0.4046 23.770865,23.770865 0 0 1 1.2949,-0.80923 23.770865,23.770865 0 0 1 0.7283,-0.4046 23.770865,23.770865 0 0 1 1.6992,-0.80922 23.770865,23.770865 0 0 1 0.081,0 23.770865,23.770865 0 0 1 2.1848,-0.80923 23.770865,23.770865 0 0 1 2.0635,-0.52599 23.770865,23.770865 0 0 1 0.7689,-0.16185 23.770865,23.770865 0 0 1 1.2543,-0.20229 23.770865,23.770865 0 0 1 1.6993,-0.12139 23.770865,23.770865 0 0 1 1.2542,-0.0809 z"
       id="path3788"
       inkscape:connector-curvature="0" />
    <path
       transform="matrix(0.77017051,0,0,0.77017051,1402.2527,142.42353)"
       d="m 588.57144,810.42859 a 100,100 0 1 1 -200,0 100,100 0 1 1 200,0 z"
       sodipodi:ry="100"
       sodipodi:rx="100"
       sodipodi:cy="810.42859"
       sodipodi:cx="488.57144"
       id="path3786"
       style="color:#000000;fill:#e96800;fill-opacity:1;fill-rule:nonzero;stroke:none;stroke-width:10;marker:none;visibility:visible;display:inline;overflow:visible;enable-background:accumulate"
       sodipodi:type="arc" />
  </g>
</svg>
