<?xml version="1.0" encoding="UTF-8" standalone="no"?>
<!-- Created with Inkscape (http://www.inkscape.org/) -->

<svg
   xmlns:dc="http://purl.org/dc/elements/1.1/"
   xmlns:cc="http://creativecommons.org/ns#"
   xmlns:rdf="http://www.w3.org/1999/02/22-rdf-syntax-ns#"
   xmlns:svg="http://www.w3.org/2000/svg"
   xmlns="http://www.w3.org/2000/svg"
   xmlns:sodipodi="http://sodipodi.sourceforge.net/DTD/sodipodi-0.dtd"
   xmlns:inkscape="http://www.inkscape.org/namespaces/inkscape"
   width="2048"
   height="1024"
   id="svg2"
   version="1.1"
   inkscape:version="0.48.4 r9939"
   sodipodi:docname="Logo_final.svg">
  <defs
     id="defs4" />
  <sodipodi:namedview
     id="base"
     pagecolor="#000000"
     bordercolor="#52ff30"
     borderopacity="0.54901961"
     inkscape:pageopacity="0"
     inkscape:pageshadow="2"
     inkscape:zoom="0.5"
     inkscape:cx="1189.7736"
     inkscape:cy="802.57089"
     inkscape:document-units="px"
     inkscape:current-layer="svg2"
     showgrid="false"
     borderlayer="true"
     inkscape:window-width="2456"
     inkscape:window-height="1418"
     inkscape:window-x="1592"
     inkscape:window-y="-8"
     inkscape:window-maximized="1" />
  <metadata
     id="metadata7">
    <rdf:RDF>
      <cc:Work
         rdf:about="">
        <dc:format>image/svg+xml</dc:format>
        <dc:type
           rdf:resource="http://purl.org/dc/dcmitype/StillImage" />
        <dc:title></dc:title>
      </cc:Work>
    </rdf:RDF>
  </metadata>
  <g
     inkscape:label="bg"
     inkscape:groupmode="layer"
     id="layer1"
     transform="translate(0,-28.362183)">
    <rect
       style="color:#000000;fill:#000000;fill-opacity:1;fill-rule:nonzero;stroke:none;stroke-width:10;marker:none;visibility:visible;display:inline;overflow:visible;enable-background:accumulate"
       id="rect3782"
       width="2369.8179"
       height="1254.6095"
       x="-131.31982"
       y="-68.136833" />
  </g>
  <g
     inkscape:groupmode="layer"
     id="layer4"
     inkscape:label="construction"
     style="display:none">
    <g
       id="g2989"
       transform="matrix(27.481075,0,0,61.933938,292.2088,127.94509)"
       style="opacity:0.20796461">
      <path
         id="path2991"
         d="m 42.296485,1.6748962 c -0.251101,0 -0.558001,0 -0.809102,0.013085 l 0,-0.013085 -9.123318,0 -0.1674,0 -6.528613,0 c -0.362701,0 -0.669602,0.039255 -0.948602,0.1177661 -0.306901,0.078511 -0.530101,0.1701067 -0.697502,0.3009579 -0.1395,0.1439364 -0.2232,0.2747877 -0.2232,0.4318092 0,0.1439364 0.0837,0.2617025 0.2232,0.3925538 0.167401,0.1439364 0.390601,0.2355323 0.697502,0.314043 0.279,0.078511 0.585901,0.1177662 0.948602,0.1177662 l 3.766507,0 0.1674,0 4.79881,0 c -1.339203,0.7458522 -2.120404,1.7141516 -2.120404,2.7871319 0,2.5385146 4.324508,4.4620277 10.01612,4.4620277 5.719511,0 10.04402,-1.9235131 10.04402,-4.4620277 0,-2.5254294 -4.324509,-4.4620281 -10.04402,-4.4620281 z M 41.989584,0 c 7.839916,0 13.810528,2.6562807 13.810528,6.1369243 0,3.4806437 -5.970612,6.1369247 -13.810528,6.1369247 -7.812015,0 -13.810527,-2.656281 -13.810527,-6.1369247 0,-0.9028737 0.4185,-1.7534069 1.143902,-2.4992591 l -3.961808,0 c -0.474301,0 -0.864902,-0.065426 -1.255503,-0.1570216 -0.3906,-0.091596 -0.697501,-0.2355322 -0.920701,-0.4056389 -0.251101,-0.1831917 -0.334801,-0.3663835 -0.334801,-0.5495753 0,-0.2224471 0.0837,-0.3925538 0.334801,-0.5626604 0.2232,-0.1962769 0.530101,-0.3140431 0.920701,-0.4187241 0.390601,-0.104681 0.781202,-0.1439364 1.255503,-0.1439364 l 7.700415,0 C 35.433071,0.52340506 38.529977,0 41.989584,0 z"
         style="fill:#ffffff;fill-opacity:1;fill-rule:evenodd;stroke:none"
         inkscape:connector-curvature="0" />
      <path
         id="path2999"
         d="m 10.992622,1.6879813 -8.1747163,0 c -0.3627008,0 -0.6696014,0.02617 -0.9486019,0.091596 C 1.5624031,1.858088 1.3392027,1.962769 1.1718024,2.0936202 1.0323021,2.2244715 0.9486019,2.3684079 0.9486019,2.5123443 c 0,0.1570215 0.0837002,0.2878728 0.2232005,0.4318092 0.1674003,0.1308512 0.3906007,0.2224471 0.6975014,0.3009579 0.2790005,0.078511 0.5859011,0.1177661 0.9486019,0.1177661 l 8.1747163,0 c 0.334801,0 0.641701,-0.039255 0.892802,-0.1177661 0.3069,-0.078511 0.530101,-0.1701067 0.697501,-0.3009579 0.167401,-0.1439364 0.251101,-0.2747877 0.251101,-0.4318092 0,-0.1439364 -0.0837,-0.2878728 -0.251101,-0.4187241 -0.1674,-0.1308512 -0.390601,-0.2355322 -0.697501,-0.314043 -0.251101,-0.065426 -0.558001,-0.091596 -0.892802,-0.091596 z m 0.279001,-0.2878728 c 0.474301,0 0.864901,0.039255 1.255502,0.1570216 0.390601,0.091596 0.697502,0.2224471 0.920702,0.4056389 0.251101,0.1701066 0.334801,0.3402133 0.334801,0.5495753 0,0.209362 -0.0837,0.3925538 -0.334801,0.5626604 -0.2232,0.1701067 -0.530101,0.3009579 -0.920702,0.4056389 -0.390601,0.1177662 -0.781201,0.1570216 -1.255502,0.1570216 l -8.760618,0 c -0.4743009,0 -0.8649017,-0.039255 -1.2555025,-0.1570216 C 0.86490174,3.3759626 0.55800112,3.2451114 0.33480067,3.0750047 0.08370017,2.9048981 0,2.7217063 0,2.5123443 0,2.3029823 0.08370017,2.1328756 0.33480067,1.962769 0.55800112,1.7795772 0.86490174,1.6487259 1.2555025,1.5571301 1.6461033,1.4393639 2.0367041,1.4001085 2.511005,1.4001085 l 8.760618,0 z"
         style="fill:#ffffff;fill-opacity:1;fill-rule:evenodd;stroke:none"
         inkscape:connector-curvature="0" />
      <path
         id="path3001"
         d="m 19.083638,1.6879813 -1.590303,0 c -0.362701,0 -0.669601,0.02617 -0.948602,0.091596 -0.3069,0.078511 -0.530101,0.1831918 -0.697501,0.314043 -0.167401,0.1308513 -0.223201,0.2747877 -0.223201,0.4187241 0,0.1570215 0.0558,0.2878728 0.223201,0.4318092 0.1674,0.1308512 0.390601,0.2224471 0.697501,0.3009579 0.279001,0.078511 0.585901,0.1177661 0.948602,0.1177661 l 1.590303,0 c 0.334801,0 0.641702,-0.039255 0.948602,-0.1177661 0.306901,-0.078511 0.530101,-0.1701067 0.697502,-0.3009579 0.1674,-0.1439364 0.2511,-0.2747877 0.2511,-0.4318092 0,-0.1439364 -0.0837,-0.2878728 -0.2511,-0.4187241 C 20.562341,1.962769 20.339141,1.858088 20.03224,1.7795772 19.72534,1.7141516 19.418439,1.6879813 19.083638,1.6879813 z m 0.306901,-0.2878728 c 0.474301,0 0.864902,0.039255 1.255502,0.1570216 0.418501,0.091596 0.697502,0.2224471 0.948602,0.4056389 0.223201,0.1701066 0.306901,0.3402133 0.306901,0.5495753 0,0.209362 -0.0837,0.3925538 -0.306901,0.5626604 -0.2511,0.1701067 -0.530101,0.3009579 -0.948602,0.4056389 -0.3906,0.1177662 -0.781201,0.1570216 -1.255502,0.1570216 l -2.204104,0 c -0.474301,0 -0.864902,-0.039255 -1.255503,-0.1570216 C 15.540331,3.3759626 15.233431,3.2451114 15.01023,3.0750047 14.75913,2.9048981 14.675429,2.7217063 14.675429,2.5123443 c 0,-0.209362 0.0837,-0.3794687 0.334801,-0.5495753 0.223201,-0.1831918 0.530101,-0.3140431 0.920702,-0.4056389 0.390601,-0.1177662 0.781202,-0.1570216 1.255503,-0.1570216 l 2.204104,0 z"
         style="fill:#ffffff;fill-opacity:1;fill-rule:evenodd;stroke:none"
         inkscape:connector-curvature="0" />
    </g>
    <path
       style="color:#000000;fill:none;stroke:#68e951;stroke-width:106.11341858;stroke-linecap:round;stroke-linejoin:miter;stroke-miterlimit:4;stroke-opacity:0.49468085;stroke-dashoffset:0;marker:none;visibility:visible;display:inline;overflow:visible;enable-background:accumulate"
       d="m 887.85096,313.85741 0,-70.00683 z"
       id="rect3827"
       inkscape:connector-curvature="0"
       sodipodi:nodetypes="ccc" />
    <path
       sodipodi:nodetypes="ccc"
       inkscape:connector-curvature="0"
       id="path3830"
       d="m 675.6426,313.85741 0,-70.00683 z"
       style="color:#000000;fill:none;stroke:#68e951;stroke-width:106.11341858;stroke-linecap:round;stroke-linejoin:miter;stroke-miterlimit:4;stroke-opacity:0.49468085;stroke-dashoffset:0;marker:none;visibility:visible;display:inline;overflow:visible;enable-background:accumulate" />
    <path
       sodipodi:nodetypes="cccccc"
       inkscape:connector-curvature="0"
       id="path3865"
       d="m 289.4398,282.55875 280.14788,0 m 211.85954,0 0.45444,0 m 211.76834,0 462.4391,0"
       style="color:#000000;fill:none;stroke:#51aae9;stroke-width:106.11341858;stroke-linecap:round;stroke-miterlimit:4;stroke-opacity:0.49468085;stroke-dasharray:none;marker:none;visibility:visible;display:inline;overflow:visible;enable-background:accumulate" />
    <path
       transform="matrix(2.7866249,0,0,2.7866249,93.407669,-1750.2618)"
       d="m 588.57144,810.42859 a 100,100 0 1 1 -200,0 100,100 0 1 1 200,0 z"
       sodipodi:ry="100"
       sodipodi:rx="100"
       sodipodi:cy="810.42859"
       sodipodi:cx="488.57144"
       id="path3884"
       style="color:#000000;fill:#0bff6b;fill-opacity:0.5;fill-rule:nonzero;stroke:none;stroke-width:10;marker:none;visibility:visible;display:inline;overflow:visible;enable-background:accumulate"
       sodipodi:type="arc" />
  </g>
  <g
     inkscape:groupmode="layer"
     id="layer3"
     inkscape:label="text">
    <path
       style="color:#000000;fill:#ffffff;fill-opacity:1;fill-rule:nonzero;stroke:none;stroke-width:10;marker:none;visibility:visible;display:inline;overflow:visible;enable-background:accumulate"
       d="m 801.57436,446.1019 c -16.61453,0 -31.16892,8.57747 -39.66603,21.5046 L 620.14066,681.29708 c -5.34597,7.68475 -8.40305,17.03577 -8.40305,27.10663 0,26.23427 21.20244,47.52695 47.4366,47.52695 l 141.85802,0 0,24.75739 0,0.0904 c 0.049,26.19252 21.32307,47.43659 47.52695,47.43659 26.20386,0 47.47795,-21.24407 47.52696,-47.43659 5e-5,-0.0303 0,-0.0601 0,-0.0904 l 0,-287.05919 c 0,-26.23416 -21.29283,-47.52696 -47.52696,-47.52696 l -46.98482,0 z m -0.54213,137.79203 0,77.07318 -51.05082,0 51.05082,-77.07318 z"
       id="path3798"
       inkscape:connector-curvature="0" />
    <path
       style="color:#000000;fill:#ffffff;fill-opacity:1;fill-rule:nonzero;stroke:none;stroke-width:10;marker:none;visibility:visible;display:inline;overflow:visible;enable-background:accumulate"
       d="m 564.57208,494.17099 c 0,-26.23415 -21.29281,-47.52695 -47.52696,-47.52695 l -49.063,0 c -26.23415,0 -47.43659,21.2928 -47.43659,47.52695 0,26.23416 21.20244,47.52696 47.43659,47.52696 l 1.6264,0 0,238.9901 c 0,26.23427 21.20245,47.52695 47.4366,47.52695 26.23415,0 47.52696,-21.29268 47.52696,-47.52695 z"
       id="path3790"
       inkscape:connector-curvature="0"
       sodipodi:nodetypes="cssssccscc" />
  </g>
  <g
     inkscape:groupmode="layer"
     id="layer2"
     inkscape:label="graphics">
    <path
       style="color:#000000;fill:#ffffff;fill-opacity:1;fill-rule:nonzero;stroke:none;stroke-width:10;marker:none;visibility:visible;display:inline;overflow:visible;enable-background:accumulate"
       d="m 1454.8441,123.26196 c -88.229,0 -169.4708,29.75582 -234.382,79.69349 l -226.7921,0 c -21.17781,0 -41.31646,8.33673 -56.29143,23.3117 -14.97498,14.97497 -23.3117,35.11365 -23.3117,56.29143 0,21.17778 8.33672,41.31646 23.3117,56.29143 14.97497,14.97498 35.11362,23.3117 56.29143,23.3117 l 105.0834,0 c -18.4649,45.01033 -28.7331,94.26113 -28.7331,145.92402 0,212.5262 172.2976,384.82376 384.8238,384.82376 212.5262,0 384.8238,-172.29756 384.8238,-384.82376 0,-212.5262 -172.2976,-384.82377 -384.8238,-384.82377 z M 289.4398,202.95545 c -21.1778,0 -41.31646,8.33673 -56.29143,23.3117 -14.97497,14.97497 -23.3117,35.11365 -23.3117,56.29143 0,21.17778 8.33673,41.31646 23.3117,56.29143 14.97497,14.97498 35.11363,23.3117 56.29143,23.3117 l 280.19218,0 c 21.17781,0 41.31646,-8.33672 56.29143,-23.3117 14.97497,-14.97497 23.3117,-35.11365 23.3117,-56.29143 0,-21.17778 -8.33673,-41.31646 -23.3117,-56.29143 -14.97497,-14.97497 -35.11362,-23.3117 -56.29143,-23.3117 l -280.19218,0 z m 491.9853,0 c -21.17781,0 -41.31646,8.33673 -56.29143,23.3117 -14.97497,14.97497 -23.3117,35.11365 -23.3117,56.29143 0,21.17778 8.33673,41.31646 23.3117,56.29143 14.97497,14.97498 35.11362,23.3117 56.29143,23.3117 l 0.45178,0 c 21.17781,0 41.31645,-8.33672 56.29143,-23.3117 14.97497,-14.97497 23.3117,-35.11365 23.3117,-56.29143 0,-21.17778 -8.33673,-41.31646 -23.3117,-56.29143 -14.97498,-14.97497 -35.11362,-23.3117 -56.29143,-23.3117 l -0.45178,0 z m -491.9853,26.47414 280.19218,0 a 53.083813,53.083813 0 0 1 2.71066,0.18071 53.083813,53.083813 0 0 1 3.88529,0.27107 53.083813,53.083813 0 0 1 2.80101,0.45178 53.083813,53.083813 0 0 1 1.89747,0.36142 53.083813,53.083813 0 0 1 2.80102,0.72284 53.083813,53.083813 0 0 1 3.16244,0.90355 53.083813,53.083813 0 0 1 0.54213,0.18072 53.083813,53.083813 0 0 1 0.54213,0.18071 53.083813,53.083813 0 0 1 4.33706,1.89746 53.083813,53.083813 0 0 1 3.79493,1.98782 53.083813,53.083813 0 0 1 2.62031,1.6264 53.083813,53.083813 0 0 1 1.44568,0.99391 53.083813,53.083813 0 0 1 2.62031,1.89746 53.083813,53.083813 0 0 1 1.98782,1.71675 53.083813,53.083813 0 0 1 0.72284,0.63249 53.083813,53.083813 0 0 1 2.16853,2.07818 53.083813,53.083813 0 0 1 0.72285,0.8132 53.083813,53.083813 0 0 1 1.71675,1.98782 53.083813,53.083813 0 0 1 1.80711,2.16853 53.083813,53.083813 0 0 1 0.63249,0.81319 53.083813,53.083813 0 0 1 0.90355,1.35534 53.083813,53.083813 0 0 1 1.35533,2.16853 53.083813,53.083813 0 0 1 1.08427,1.71675 53.083813,53.083813 0 0 1 1.80711,3.61422 53.083813,53.083813 0 0 1 0.36142,0.72284 53.083813,53.083813 0 0 1 1.53604,3.88528 53.083813,53.083813 0 0 1 0.54213,1.6264 53.083813,53.083813 0 0 1 0.90356,3.16244 53.083813,53.083813 0 0 1 0.54213,2.52995 53.083813,53.083813 0 0 1 0.45178,2.16853 53.083813,53.083813 0 0 1 0.36142,3.34315 53.083813,53.083813 0 0 1 0.18071,2.4396 53.083813,53.083813 0 0 1 0.0904,2.52995 53.083813,53.083813 0 0 1 -0.0904,2.52995 53.083813,53.083813 0 0 1 -0.18071,2.34924 53.083813,53.083813 0 0 1 -0.36142,3.2528 53.083813,53.083813 0 0 1 -0.45178,2.62031 53.083813,53.083813 0 0 1 -0.27107,1.26497 53.083813,53.083813 0 0 1 -0.27106,0.8132 53.083813,53.083813 0 0 1 -0.99391,3.52386 53.083813,53.083813 0 0 1 -0.18071,0.72285 53.083813,53.083813 0 0 1 -0.0904,0.36142 53.083813,53.083813 0 0 1 -1.89746,4.51777 53.083813,53.083813 0 0 1 0,0.18071 53.083813,53.083813 0 0 1 -1.98782,3.79493 53.083813,53.083813 0 0 1 -0.45178,0.8132 53.083813,53.083813 0 0 1 -0.63249,0.90355 53.083813,53.083813 0 0 1 -2.25888,3.52386 53.083813,53.083813 0 0 1 -0.63249,0.8132 53.083813,53.083813 0 0 1 -1.80711,2.16853 53.083813,53.083813 0 0 1 -1.89746,2.25889 53.083813,53.083813 0 0 1 -1.08427,1.08426 53.083813,53.083813 0 0 1 -3.07208,2.80102 53.083813,53.083813 0 0 1 -2.62031,2.16853 53.083813,53.083813 0 0 1 -0.54213,0.36142 53.083813,53.083813 0 0 1 -3.16244,2.07818 53.083813,53.083813 0 0 1 -0.72285,0.54213 53.083813,53.083813 0 0 1 -0.90355,0.45178 53.083813,53.083813 0 0 1 -2.25889,1.26497 53.083813,53.083813 0 0 1 -2.43959,1.17463 53.083813,53.083813 0 0 1 -3.2528,1.35533 53.083813,53.083813 0 0 1 -1.26497,0.45177 53.083813,53.083813 0 0 1 -3.79493,1.17462 53.083813,53.083813 0 0 1 -0.72285,0.18072 53.083813,53.083813 0 0 1 -0.36142,0.0904 53.083813,53.083813 0 0 1 -4.33706,0.8132 53.083813,53.083813 0 0 1 -0.54213,0.0904 53.083813,53.083813 0 0 1 -0.54213,0 53.083813,53.083813 0 0 1 -4.24671,0.36143 53.083813,53.083813 0 0 1 -0.54213,0.0904 53.083813,53.083813 0 0 1 -2.16853,0.0904 l -280.19218,0 a 53.083813,53.083813 0 0 1 -5.33097,-0.27107 53.083813,53.083813 0 0 1 -5.15026,-0.8132 53.083813,53.083813 0 0 1 -0.18071,0 53.083813,53.083813 0 0 1 -3.43351,-0.90355 53.083813,53.083813 0 0 1 -3.16244,-0.90356 53.083813,53.083813 0 0 1 -1.26497,-0.45177 53.083813,53.083813 0 0 1 -3.2528,-1.35533 53.083813,53.083813 0 0 1 -2.43959,-1.17463 53.083813,53.083813 0 0 1 -1.98782,-1.08426 53.083813,53.083813 0 0 1 -3.79493,-2.34924 53.083813,53.083813 0 0 1 -4.15635,-3.16244 53.083813,53.083813 0 0 1 -3.34315,-3.07209 53.083813,53.083813 0 0 1 -1.08427,-1.08426 53.083813,53.083813 0 0 1 -2.16853,-2.52995 53.083813,53.083813 0 0 1 -1.17462,-1.35533 53.083813,53.083813 0 0 1 -2.62031,-3.79493 53.083813,53.083813 0 0 1 -0.18071,-0.18071 53.083813,53.083813 0 0 1 -1.80711,-3.16244 53.083813,53.083813 0 0 1 -1.53604,-3.07209 53.083813,53.083813 0 0 1 -0.36142,-0.8132 53.083813,53.083813 0 0 1 -1.44569,-3.4335 53.083813,53.083813 0 0 1 -0.81319,-2.4396 53.083813,53.083813 0 0 1 -0.72285,-2.62031 53.083813,53.083813 0 0 1 -0.63249,-2.80101 53.083813,53.083813 0 0 1 -0.36142,-1.80711 53.083813,53.083813 0 0 1 -0.45178,-3.61422 53.083813,53.083813 0 0 1 -0.0904,-2.16853 53.083813,53.083813 0 0 1 -0.0904,-2.71066 53.083813,53.083813 0 0 1 0.0904,-2.52996 53.083813,53.083813 0 0 1 0.18072,-2.34924 53.083813,53.083813 0 0 1 0.36142,-3.34315 53.083813,53.083813 0 0 1 0.36142,-1.98782 53.083813,53.083813 0 0 1 0.72284,-2.98173 53.083813,53.083813 0 0 1 0.63249,-2.34924 53.083813,53.083813 0 0 1 0.72284,-2.25888 53.083813,53.083813 0 0 1 1.53605,-3.79493 53.083813,53.083813 0 0 1 0.36142,-0.72284 53.083813,53.083813 0 0 1 1.80711,-3.61422 53.083813,53.083813 0 0 1 1.08426,-1.71675 53.083813,53.083813 0 0 1 1.17462,-1.89747 53.083813,53.083813 0 0 1 2.16853,-3.07208 53.083813,53.083813 0 0 1 0.54213,-0.54214 53.083813,53.083813 0 0 1 3.2528,-3.70457 53.083813,53.083813 0 0 1 3.88528,-3.61421 53.083813,53.083813 0 0 1 3.70458,-2.89138 53.083813,53.083813 0 0 1 1.35533,-0.90355 53.083813,53.083813 0 0 1 2.89137,-1.80711 53.083813,53.083813 0 0 1 1.6264,-0.90356 53.083813,53.083813 0 0 1 3.79493,-1.8071 53.083813,53.083813 0 0 1 0.18071,0 53.083813,53.083813 0 0 1 4.87919,-1.80711 53.083813,53.083813 0 0 1 4.60813,-1.17462 53.083813,53.083813 0 0 1 1.71675,-0.36142 53.083813,53.083813 0 0 1 2.80102,-0.45178 53.083813,53.083813 0 0 1 3.79493,-0.27107 53.083813,53.083813 0 0 1 2.80101,-0.18071 z m 491.9853,0 0.45178,0 a 53.083813,53.083813 0 0 1 2.80102,0.18071 53.083813,53.083813 0 0 1 3.79492,0.27107 53.083813,53.083813 0 0 1 2.80102,0.45178 53.083813,53.083813 0 0 1 1.89747,0.36142 53.083813,53.083813 0 0 1 2.80101,0.72284 53.083813,53.083813 0 0 1 3.16244,0.90355 53.083813,53.083813 0 0 1 0.54214,0.18072 53.083813,53.083813 0 0 1 0.54213,0.18071 53.083813,53.083813 0 0 1 4.33706,1.89746 53.083813,53.083813 0 0 1 3.79493,1.98782 53.083813,53.083813 0 0 1 2.6203,1.6264 53.083813,53.083813 0 0 1 1.44569,0.99391 53.083813,53.083813 0 0 1 2.62031,1.89746 53.083813,53.083813 0 0 1 1.98782,1.71675 53.083813,53.083813 0 0 1 0.72284,0.63249 53.083813,53.083813 0 0 1 2.16853,2.07818 53.083813,53.083813 0 0 1 0.72285,0.8132 53.083813,53.083813 0 0 1 1.71675,1.98782 53.083813,53.083813 0 0 1 1.80711,2.16853 53.083813,53.083813 0 0 1 0.63248,0.81319 53.083813,53.083813 0 0 1 0.90356,1.35534 53.083813,53.083813 0 0 1 1.35533,2.16853 53.083813,53.083813 0 0 1 1.08427,1.71675 53.083813,53.083813 0 0 1 1.8071,3.61422 53.083813,53.083813 0 0 1 0.36143,0.72284 53.083813,53.083813 0 0 1 1.53604,3.88528 53.083813,53.083813 0 0 1 0.54213,1.6264 53.083813,53.083813 0 0 1 0.90356,3.16244 53.083813,53.083813 0 0 1 0.54213,2.52995 53.083813,53.083813 0 0 1 0.45177,2.16853 53.083813,53.083813 0 0 1 0.36143,3.34315 53.083813,53.083813 0 0 1 0.18071,2.4396 53.083813,53.083813 0 0 1 0.0904,2.52995 53.083813,53.083813 0 0 1 -0.0904,2.52995 53.083813,53.083813 0 0 1 -0.18071,2.34924 53.083813,53.083813 0 0 1 -0.36143,3.2528 53.083813,53.083813 0 0 1 -0.45177,2.62031 53.083813,53.083813 0 0 1 -0.27107,1.26497 53.083813,53.083813 0 0 1 -0.27106,0.8132 53.083813,53.083813 0 0 1 -0.99391,3.52386 53.083813,53.083813 0 0 1 -0.18072,0.72285 53.083813,53.083813 0 0 1 -0.0904,0.36142 53.083813,53.083813 0 0 1 -1.89746,4.51777 53.083813,53.083813 0 0 1 0,0.18071 53.083813,53.083813 0 0 1 -1.98782,3.79493 53.083813,53.083813 0 0 1 -0.45178,0.8132 53.083813,53.083813 0 0 1 -0.63249,0.90355 53.083813,53.083813 0 0 1 -2.25889,3.52386 53.083813,53.083813 0 0 1 -0.63248,0.8132 53.083813,53.083813 0 0 1 -1.80711,2.16853 53.083813,53.083813 0 0 1 -1.89747,2.25889 53.083813,53.083813 0 0 1 -0.54213,0.54213 53.083813,53.083813 0 0 1 -0.54213,0.54213 53.083813,53.083813 0 0 1 -3.07209,2.80102 53.083813,53.083813 0 0 1 -2.6203,2.16853 53.083813,53.083813 0 0 1 -0.54214,0.36142 53.083813,53.083813 0 0 1 -3.16244,2.07818 53.083813,53.083813 0 0 1 -0.72284,0.54213 53.083813,53.083813 0 0 1 -0.90355,0.45178 53.083813,53.083813 0 0 1 -2.25889,1.26497 53.083813,53.083813 0 0 1 -2.43959,1.17463 53.083813,53.083813 0 0 1 -3.2528,1.35533 53.083813,53.083813 0 0 1 -1.26498,0.45177 53.083813,53.083813 0 0 1 -3.79492,1.17462 53.083813,53.083813 0 0 1 -0.72285,0.18072 53.083813,53.083813 0 0 1 -0.36142,0.0904 53.083813,53.083813 0 0 1 -4.33706,0.8132 53.083813,53.083813 0 0 1 -0.54213,0.0904 53.083813,53.083813 0 0 1 -0.54213,0 53.083813,53.083813 0 0 1 -4.15635,0.36143 53.083813,53.083813 0 0 1 -0.63249,0.0904 53.083813,53.083813 0 0 1 -2.16853,0.0904 l -0.45178,0 a 53.083813,53.083813 0 0 1 -5.33097,-0.27107 53.083813,53.083813 0 0 1 -5.15026,-0.8132 53.083813,53.083813 0 0 1 -0.18071,0 53.083813,53.083813 0 0 1 -3.43351,-0.90355 53.083813,53.083813 0 0 1 -3.16244,-0.90356 53.083813,53.083813 0 0 1 -1.26497,-0.45177 53.083813,53.083813 0 0 1 -3.2528,-1.35533 53.083813,53.083813 0 0 1 -2.43959,-1.17463 53.083813,53.083813 0 0 1 -1.98782,-1.08426 53.083813,53.083813 0 0 1 -3.79493,-2.34924 53.083813,53.083813 0 0 1 -4.15635,-3.16244 53.083813,53.083813 0 0 1 -3.34315,-3.07209 53.083813,53.083813 0 0 1 -0.54213,-0.54213 53.083813,53.083813 0 0 1 -0.54214,-0.54213 53.083813,53.083813 0 0 1 -2.16853,-2.52995 53.083813,53.083813 0 0 1 -1.17462,-1.35533 53.083813,53.083813 0 0 1 -2.62031,-3.79493 53.083813,53.083813 0 0 1 -0.18071,-0.18071 53.083813,53.083813 0 0 1 -1.8071,-3.16244 53.083813,53.083813 0 0 1 -1.53605,-3.07209 53.083813,53.083813 0 0 1 -0.36142,-0.8132 53.083813,53.083813 0 0 1 -1.44569,-3.4335 53.083813,53.083813 0 0 1 -0.81319,-2.4396 53.083813,53.083813 0 0 1 -0.72285,-2.62031 53.083813,53.083813 0 0 1 -0.63249,-2.80101 53.083813,53.083813 0 0 1 -0.36142,-1.80711 53.083813,53.083813 0 0 1 -0.45177,-3.61422 53.083813,53.083813 0 0 1 -0.0904,-2.16853 53.083813,53.083813 0 0 1 -0.0904,-2.71066 53.083813,53.083813 0 0 1 0.0904,-2.52996 53.083813,53.083813 0 0 1 0.18071,-2.34924 53.083813,53.083813 0 0 1 0.36142,-3.34315 53.083813,53.083813 0 0 1 0.36142,-1.98782 53.083813,53.083813 0 0 1 0.72285,-2.98173 53.083813,53.083813 0 0 1 0.63249,-2.34924 53.083813,53.083813 0 0 1 0.72284,-2.25888 53.083813,53.083813 0 0 1 1.53604,-3.79493 53.083813,53.083813 0 0 1 0.36142,-0.72284 53.083813,53.083813 0 0 1 1.80711,-3.61422 53.083813,53.083813 0 0 1 0.45178,-0.8132 53.083813,53.083813 0 0 1 1.80711,-2.80102 53.083813,53.083813 0 0 1 2.16853,-3.07208 53.083813,53.083813 0 0 1 0.54213,-0.54214 53.083813,53.083813 0 0 1 3.2528,-3.70457 53.083813,53.083813 0 0 1 3.88528,-3.61421 53.083813,53.083813 0 0 1 3.70457,-2.89138 53.083813,53.083813 0 0 1 1.35533,-0.90355 53.083813,53.083813 0 0 1 2.89138,-1.80711 53.083813,53.083813 0 0 1 1.62639,-0.90356 53.083813,53.083813 0 0 1 3.79493,-1.8071 53.083813,53.083813 0 0 1 0.18071,0 53.083813,53.083813 0 0 1 4.8792,-1.80711 53.083813,53.083813 0 0 1 4.60812,-1.17462 53.083813,53.083813 0 0 1 1.71676,-0.36142 53.083813,53.083813 0 0 1 2.80101,-0.45178 53.083813,53.083813 0 0 1 3.88529,-0.27107 53.083813,53.083813 0 0 1 2.71066,-0.18071 z m 212.2449,0 195.8002,0 265.3739,0 1.265,0 c 0.1801,8.1e-4 0.3621,-10e-4 0.5421,0 153.0718,0.96925 276.8491,125.35617 276.8491,278.65614 0,153.90105 -124.7551,278.65613 -278.6562,278.65613 -153.901,0 -278.6561,-124.75508 -278.6561,-278.65613 0,-65.13502 22.3708,-125.04281 59.8153,-172.48851 l -125.2327,0 -117.1006,0 a 53.083813,53.083813 0 0 1 -5.33097,-0.27107 53.083813,53.083813 0 0 1 -5.15026,-0.8132 53.083813,53.083813 0 0 1 -0.18071,0 53.083813,53.083813 0 0 1 -3.43351,-0.90355 53.083813,53.083813 0 0 1 -3.16244,-0.90356 53.083813,53.083813 0 0 1 -1.26497,-0.45177 53.083813,53.083813 0 0 1 -3.2528,-1.35533 53.083813,53.083813 0 0 1 -2.4396,-1.17463 53.083813,53.083813 0 0 1 -1.98782,-1.08426 53.083813,53.083813 0 0 1 -3.79492,-2.34924 53.083813,53.083813 0 0 1 -4.15635,-3.16244 53.083813,53.083813 0 0 1 -3.34315,-3.07209 53.083813,53.083813 0 0 1 -0.54214,-0.54213 53.083813,53.083813 0 0 1 -0.54213,-0.54213 53.083813,53.083813 0 0 1 -2.16853,-2.52995 53.083813,53.083813 0 0 1 -1.17462,-1.35533 53.083813,53.083813 0 0 1 -2.62031,-3.79493 53.083813,53.083813 0 0 1 -0.18071,-0.18071 53.083813,53.083813 0 0 1 -1.80711,-3.16244 53.083813,53.083813 0 0 1 -1.53604,-3.07209 53.083813,53.083813 0 0 1 -0.36142,-0.8132 53.083813,53.083813 0 0 1 -1.44569,-3.4335 53.083813,53.083813 0 0 1 -0.8132,-2.4396 53.083813,53.083813 0 0 1 -0.72284,-2.62031 53.083813,53.083813 0 0 1 -0.63249,-2.80101 53.083813,53.083813 0 0 1 -0.36142,-1.80711 53.083813,53.083813 0 0 1 -0.45178,-3.61422 53.083813,53.083813 0 0 1 -0.0904,-2.16853 53.083813,53.083813 0 0 1 -0.0904,-2.71066 53.083813,53.083813 0 0 1 0.0904,-2.52996 53.083813,53.083813 0 0 1 0.18071,-2.34924 53.083813,53.083813 0 0 1 0.36142,-3.34315 53.083813,53.083813 0 0 1 0.36142,-1.98782 53.083813,53.083813 0 0 1 0.72285,-2.98173 53.083813,53.083813 0 0 1 0.63248,-2.34924 53.083813,53.083813 0 0 1 0.72285,-2.25888 53.083813,53.083813 0 0 1 1.53604,-3.79493 53.083813,53.083813 0 0 1 0.36142,-0.72284 53.083813,53.083813 0 0 1 1.80711,-3.61422 53.083813,53.083813 0 0 1 0.45178,-0.8132 53.083813,53.083813 0 0 1 1.8071,-2.80102 53.083813,53.083813 0 0 1 2.16854,-3.07208 53.083813,53.083813 0 0 1 0.54213,-0.54214 53.083813,53.083813 0 0 1 3.25279,-3.70457 53.083813,53.083813 0 0 1 3.88529,-3.61421 53.083813,53.083813 0 0 1 3.70457,-2.89138 53.083813,53.083813 0 0 1 1.35533,-0.90355 53.083813,53.083813 0 0 1 2.89137,-1.80711 53.083813,53.083813 0 0 1 1.6264,-0.90356 53.083813,53.083813 0 0 1 3.79493,-1.8071 53.083813,53.083813 0 0 1 0.18071,0 53.083813,53.083813 0 0 1 4.87919,-1.80711 53.083813,53.083813 0 0 1 4.60813,-1.17462 53.083813,53.083813 0 0 1 1.71675,-0.36142 53.083813,53.083813 0 0 1 2.80102,-0.45178 53.083813,53.083813 0 0 1 3.79493,-0.27107 53.083813,53.083813 0 0 1 2.80102,-0.18071 z"
       id="path3788"
       inkscape:connector-curvature="0" />
    <path
       transform="matrix(1.7199032,0,0,1.7199032,614.57746,-885.75999)"
       d="m 588.57144,810.42859 a 100,100 0 1 1 -200,0 100,100 0 1 1 200,0 z"
       sodipodi:ry="100"
       sodipodi:rx="100"
       sodipodi:cy="810.42859"
       sodipodi:cx="488.57144"
       id="path3786"
       style="color:#000000;fill:#ffffff;fill-opacity:1;fill-rule:nonzero;stroke:none;stroke-width:10;marker:none;visibility:visible;display:inline;overflow:visible;enable-background:accumulate"
       sodipodi:type="arc" />
  </g>
</svg>
